<?xml version="1.0" encoding="UTF-8" standalone="no"?>
<svg
   xmlns:dc="http://purl.org/dc/elements/1.1/"
   xmlns:cc="http://creativecommons.org/ns#"
   xmlns:rdf="http://www.w3.org/1999/02/22-rdf-syntax-ns#"
   xmlns:svg="http://www.w3.org/2000/svg"
   xmlns="http://www.w3.org/2000/svg"
   xmlns:sodipodi="http://sodipodi.sourceforge.net/DTD/sodipodi-0.dtd"
   xmlns:inkscape="http://www.inkscape.org/namespaces/inkscape"
   sodipodi:docname="1.svg"
   inkscape:version="1.0 (4035a4f, 2020-05-01)"
   id="svg8"
   version="1.1"
   viewBox="0 0 210 297"
   height="297mm"
   width="210mm">
  <defs
     id="defs2" />
  <sodipodi:namedview
     inkscape:window-maximized="0"
     inkscape:window-y="0"
     inkscape:window-x="0"
     inkscape:window-height="1050"
     inkscape:window-width="1680"
     showgrid="false"
     inkscape:document-rotation="0"
     inkscape:current-layer="layer1"
     inkscape:document-units="mm"
     inkscape:cy="560"
     inkscape:cx="400"
     inkscape:zoom="0.35"
     inkscape:pageshadow="2"
     inkscape:pageopacity="0.0"
     borderopacity="1.0"
     bordercolor="#666666"
     pagecolor="#ffffff"
     id="base" />
  <metadata
     id="metadata5">
    <rdf:RDF>
      <cc:Work
         rdf:about="">
        <dc:format>image/svg+xml</dc:format>
        <dc:type
           rdf:resource="http://purl.org/dc/dcmitype/StillImage" />
        <dc:title></dc:title>
      </cc:Work>
    </rdf:RDF>
  </metadata>
  <g
     id="layer1"
     inkscape:groupmode="layer"
     inkscape:label="Layer 1">
    <circle
       r="0.099906191"
       cy="126.24404"
       cx="24.190477"
       style="fill:#000000;stroke:#000000;stroke-width:0.264583"
       id="path40" />
    <path
       id="path46"
       d="m 12.131451,38.719167 c 0,0 16.005942,-39.14705575 54.397526,-23.11425 38.391583,16.032806 26.59614,45.952989 62.022873,42.424032 35.42675,-3.528956 49.73037,-26.730451 60.16605,11.476423 10.43568,38.206878 30.26274,63.976938 4.35836,80.026618 -25.90438,16.04969 -72.12266,13.91091 -83.3238,39.27138 -11.201153,25.36047 3.82444,43.73696 -27.959238,43.35423 -31.783672,-0.38273 -65.323384,13.66915 -63.51029,-20.43467 1.813093,-34.10382 10.254302,-9.44178 18.168247,-63.4297 C 44.365126,94.305295 60.068926,89.208335 32.33458,75.065881 4.6002347,60.923428 -7.1650163,70.418924 2.0651857,53.449266 11.295388,36.479606 12.131451,38.719167 12.131451,38.719167 Z"
       style="fill:none;stroke:#000000;stroke-width:0.264583px;stroke-linecap:butt;stroke-linejoin:miter;stroke-opacity:1" />
    <path
       transform="scale(0.26458333)"
       id="path48"
       d="m 126.35038,882.74674 c -7.50729,-1.26245 -19.28826,-5.59985 -26.17992,-9.63865 -24.954729,-14.62443 -32.780183,-40.45095 -27.509403,-90.78978 3.6745,-35.09351 7.768414,-48.54102 20.34064,-66.81414 22.145883,-32.18791 30.823793,-61.45623 48.224083,-162.64703 6.21495,-36.14285 17.68982,-90.78571 25.4997,-121.42857 7.80988,-30.64286 15.0525,-62.28954 16.09471,-70.32594 4.58943,-35.3889 -10.67415,-54.45993 -64.74908,-80.90048 C 93.42992,268.15356 71.334069,259.93741 44.478089,252.83721 3.4302983,241.98497 -1.4285714,239.64293 -1.4285714,230.70965 c 0,-7.83774 23.9574084,-52.67522 37.2346774,-69.68652 5.958423,-7.63415 15.748668,-22.05956 21.7561,-32.05645 25.456523,-42.361923 61.084914,-70.494108 100.338334,-79.227164 24.43334,-5.435902 45.03325,-4.041678 74.49225,5.041714 53.89135,16.616874 90.99584,46.09514 134.2377,106.64734 35.48091,49.68444 53.6654,60.19764 103.36951,59.76223 33.09391,-0.28989 62.11231,-6.15816 115.21374,-23.29914 47.96363,-15.48253 73.03972,-17.7053 86.70946,-7.68602 14.36437,10.52842 26.31751,32.09709 36.90797,66.59806 5.60452,18.25796 20.8762,64.05344 33.93714,101.76773 28.16258,81.32128 34.19546,106.12506 32.28992,132.75763 -2.53566,35.43903 -20.15389,58.12963 -61.84969,79.65634 -28.82291,14.88071 -51.06968,22.609 -120.24743,41.77277 -90.10691,24.9616 -115.26228,34.73737 -142.98062,55.56454 -33.20563,24.95026 -47.6852,57.29495 -55.7496,124.53443 -8.79146,73.30155 -15.56512,79.25752 -94.23089,82.85557 -22,1.00626 -60.57143,3.66303 -85.71429,5.90398 -49.69634,4.42931 -66.99459,4.65162 -87.93533,1.13005 z"
       style="fill:#0000ff;stroke:none;stroke-width:2.85714" />
    <path
       sodipodi:nodetypes="ssssssssssssssssssssssssss"
       transform="scale(0.26458333)"
       id="path99"
       d="M 118.23509,878.91263 C 78.155834,864.59029 66.514297,834.8114 75.699183,770.1064 c 3.527577,-24.85083 -168.52005,-98.57897 29.528937,-73.21214 503.70354,64.51617 -29.039021,-97.79362 33.38729,-121.17997 108.10304,-40.49792 122.23842,-94.9785 36.97683,-148.57144 -44.95253,-28.25585 11.05997,-84.51971 4.79884,-99.5047 -5.94478,-14.22787 74.04383,-52.43164 42.94829,-67.68854 C 198.1557,247.59334 81.599971,262.66748 20,243.81731 -1.4965695,237.23915 -2.4228811,233.2196 11.28487,205.99964 23.676263,181.39362 45.851154,146.34016 84.074863,96.608711 109.77168,63.175535 153.50847,46.807748 192.38845,49.229715 255.54039,53.163667 309.44303,88.22624 364.87471,161.42857 391.45177,196.52586 401.64729,206.4069 420,214.85365 c 12.57709,5.78853 18.55729,6.55488 50,6.40734 38.60217,-0.18114 57.70034,93.85713 118.61774,-22.67472 9.11848,-17.44318 42.59655,-11.09408 52.81083,-11.93069 16.28966,-1.33421 27.69246,-5.24812 28.48252,5.25127 10.42425,138.53191 -20.64124,46.82165 10.42425,138.53191 39.7792,117.43453 92.5218,125.5579 92.5218,151.1261 0,36.14794 -10.9032,55.82263 -42.49128,76.67503 -28.77657,18.9964 -151.00135,140.89743 -137.72686,52.94 16.9172,-112.09424 -137.17903,22.14429 -135.25557,50.21408 14.72125,214.83283 -53.3062,54.25006 -64.54514,131.46317 -6.56403,45.09566 -13.42106,62.68515 -27.5956,70.78763 -10.42955,5.96177 -139.33595,154.49903 -122.38555,14.89692 9.13876,-75.26606 -110.79205,5.31311 -124.62205,0.37094 z"
       style="fill:#0000ff;stroke-width:2.85714" />
  </g>
</svg>
