<?xml version="1.0" encoding="UTF-8" standalone="no"?>
<svg
   xmlns:dc="http://purl.org/dc/elements/1.1/"
   xmlns:cc="http://creativecommons.org/ns#"
   xmlns:rdf="http://www.w3.org/1999/02/22-rdf-syntax-ns#"
   xmlns:svg="http://www.w3.org/2000/svg"
   xmlns="http://www.w3.org/2000/svg"
   xmlns:sodipodi="http://sodipodi.sourceforge.net/DTD/sodipodi-0.dtd"
   xmlns:inkscape="http://www.inkscape.org/namespaces/inkscape"
   inkscape:version="1.0 (4035a4f, 2020-05-01)"
   sodipodi:docname="3.svg"
   id="svg8"
   version="1.1"
   viewBox="0 0 210 297"
   height="297mm"
   width="210mm">
  <defs
     id="defs2" />
  <sodipodi:namedview
     inkscape:window-maximized="0"
     inkscape:window-y="0"
     inkscape:window-x="0"
     inkscape:window-height="1050"
     inkscape:window-width="1680"
     showgrid="false"
     inkscape:document-rotation="0"
     inkscape:current-layer="layer1"
     inkscape:document-units="mm"
     inkscape:cy="540.30303"
     inkscape:cx="342.68398"
     inkscape:zoom="0.82"
     inkscape:pageshadow="2"
     inkscape:pageopacity="0.0"
     borderopacity="1.0"
     bordercolor="#666666"
     pagecolor="#ffffff"
     id="base" />
  <metadata
     id="metadata5">
    <rdf:RDF>
      <cc:Work
         rdf:about="">
        <dc:format>image/svg+xml</dc:format>
        <dc:type
           rdf:resource="http://purl.org/dc/dcmitype/StillImage" />
        <dc:title></dc:title>
      </cc:Work>
    </rdf:RDF>
  </metadata>
  <g
     style="display:inline"
     id="layer1"
     inkscape:groupmode="layer"
     inkscape:label="Layer 1">
    <circle
       r="0.099906191"
       cy="126.24404"
       cx="24.190477"
       style="fill:#000000;stroke:#000000;stroke-width:0.264583"
       id="path40" />
    <path
       id="path46"
       d="m 12.131451,38.719167 c 0,0 16.005942,-39.14705575 54.397526,-23.11425 38.391583,16.032806 26.59614,45.952989 62.022873,42.424032 35.42675,-3.528956 49.73037,-26.730451 60.16605,11.476423 10.43568,38.206878 30.26274,63.976938 4.35836,80.026618 -25.90438,16.04969 -72.12266,13.91091 -83.3238,39.27138 -11.201153,25.36047 3.82444,43.73696 -27.959238,43.35423 -31.783672,-0.38273 -65.323384,13.66915 -63.51029,-20.43467 1.813093,-34.10382 10.254302,-9.44178 18.168247,-63.4297 C 44.365126,94.305295 60.068926,89.208335 32.33458,75.065881 4.6002347,60.923428 -7.1650163,70.418924 2.0651857,53.449266 11.295388,36.479606 12.131451,38.719167 12.131451,38.719167 Z"
       style="fill:none;stroke:#000000;stroke-width:0.264583px;stroke-linecap:butt;stroke-linejoin:miter;stroke-opacity:1" />
    <path
       sodipodi:nodetypes="ssssssssssssssssssssssssssss"
       transform="scale(0.26458333)"
       id="path48"
       d="m 126.35038,882.74674 c -7.50729,-1.26245 -19.28826,-5.59985 -26.17992,-9.63865 -24.954729,-14.62443 -32.780183,-40.45095 -27.509403,-90.78978 3.6745,-35.09351 7.768414,-48.54102 20.34064,-66.81414 22.145883,-32.18791 30.823793,-61.45623 48.224083,-162.64703 6.21495,-36.14285 117.68982,-42.00522 25.4997,-121.42857 -23.9577,-20.63996 8.2729,-72.44472 16.09471,-70.32594 89.95528,24.3672 114.93561,-32.50871 -64.74908,-80.90048 C 91.585677,273.06923 71.334069,259.93741 44.478089,252.83721 3.4302983,241.98497 -1.4285714,239.64293 -1.4285714,230.70965 c 0,-7.83774 23.9574084,-52.67522 37.2346774,-69.68652 5.958423,-7.63415 15.748668,-22.05956 21.7561,-32.05645 25.456523,-42.361923 61.084914,-70.494108 100.338334,-79.227164 24.43334,-5.435902 45.03325,-4.041678 74.49225,5.041714 53.89135,16.616874 59.83322,106.0141 134.2377,106.64734 106.21262,0.90395 53.6654,60.19764 103.36951,59.76223 33.09391,-0.28989 62.11231,-6.15816 115.21374,-23.29914 47.96363,-15.48253 73.03972,-17.7053 86.70946,-7.68602 14.36437,10.52842 11.68336,16.24343 -71.62862,95.86635 -13.80711,13.19574 129.41279,34.78515 142.47373,72.49944 28.16258,81.32128 34.19546,106.12506 32.28992,132.75763 -2.53566,35.43903 -131.1295,-82.11427 -61.84969,79.65634 12.76993,29.81819 -51.06968,22.609 -120.24743,41.77277 -90.10691,24.9616 -126.23789,-68.92117 -142.98062,55.56454 -5.53637,41.16404 -47.6852,57.29495 -55.7496,124.53443 -8.79146,73.30155 -15.56512,79.25752 -94.23089,82.85557 -22,1.00626 -60.57143,3.66303 -85.71429,5.90398 -49.69634,4.42931 -66.99459,4.65162 -87.93533,1.13005 z"
       style="opacity:1;fill:#ff00ff;stroke:none;stroke-width:2.85714" />
  </g>
</svg>
